<?xml version="1.0" standalone="no"?>
<svg xmlns:xlink="http://www.w3.org/1999/xlink" id="wave" style="transform:rotate(0deg); transition: 0.3s" viewBox="0 0 1440 490" version="1.1" xmlns="http://www.w3.org/2000/svg"><defs><linearGradient id="sw-gradient-0" x1="0" x2="0" y1="1" y2="0"><stop stop-color="rgba(236, 236, 236, 1)" offset="0%"/><stop stop-color="rgba(236, 236, 236, 1)" offset="100%"/></linearGradient></defs><path style="transform:translate(0, 0px); opacity:1" fill="url(#sw-gradient-0)" d="M0,294L240,253.2C480,212,960,131,1440,130.7C1920,131,2400,212,2880,220.5C3360,229,3840,163,4320,138.8C4800,114,5280,131,5760,187.8C6240,245,6720,343,7200,318.5C7680,294,8160,147,8640,130.7C9120,114,9600,229,10080,302.2C10560,376,11040,408,11520,367.5C12000,327,12480,212,12960,155.2C13440,98,13920,98,14400,89.8C14880,82,15360,65,15840,65.3C16320,65,16800,82,17280,89.8C17760,98,18240,98,18720,138.8C19200,180,19680,261,20160,277.7C20640,294,21120,245,21600,245C22080,245,22560,294,23040,326.7C23520,359,24000,376,24480,375.7C24960,376,25440,359,25920,302.2C26400,245,26880,147,27360,138.8C27840,131,28320,212,28800,212.3C29280,212,29760,131,30240,138.8C30720,147,31200,245,31680,269.5C32160,294,32640,245,33120,253.2C33600,261,34080,327,34320,359.3L34560,392L34560,490L34320,490C34080,490,33600,490,33120,490C32640,490,32160,490,31680,490C31200,490,30720,490,30240,490C29760,490,29280,490,28800,490C28320,490,27840,490,27360,490C26880,490,26400,490,25920,490C25440,490,24960,490,24480,490C24000,490,23520,490,23040,490C22560,490,22080,490,21600,490C21120,490,20640,490,20160,490C19680,490,19200,490,18720,490C18240,490,17760,490,17280,490C16800,490,16320,490,15840,490C15360,490,14880,490,14400,490C13920,490,13440,490,12960,490C12480,490,12000,490,11520,490C11040,490,10560,490,10080,490C9600,490,9120,490,8640,490C8160,490,7680,490,7200,490C6720,490,6240,490,5760,490C5280,490,4800,490,4320,490C3840,490,3360,490,2880,490C2400,490,1920,490,1440,490C960,490,480,490,240,490L0,490Z"/></svg>